<svg width="200" height="200" viewBox="0 0 200 200" fill="none" xmlns="http://www.w3.org/2000/svg">
<g id="Frame 96">
<rect width="200" height="200" rx="99" fill="black"/>
<g id="Frame 98">
<rect x="15" y="15" width="170" height="170" rx="85" stroke="url(#paint0_linear_0_1)"/>
</g>
<g id="Group 1">
<g id="mtk">
<path d="M26 117V74.3333H32.4887V82.6889L31.511 81.5333C32.9331 78.9259 34.8886 76.8519 37.3775 75.3111C39.8663 73.7111 42.5921 72.9111 45.555 72.9111C49.1697 72.9111 52.3993 73.9778 55.2436 76.1111C58.1472 78.1852 60.1916 80.8519 61.3768 84.1111L59.9546 84.2C61.0805 80.8222 62.9767 78.0963 65.6433 76.0222C68.3692 73.9481 71.5098 72.9111 75.0653 72.9111C78.2652 72.9111 81.1688 73.6815 83.7762 75.2222C86.3835 76.763 88.4279 78.837 89.9093 81.4444C91.45 84.0519 92.2204 86.9852 92.2204 90.2444V117H85.7317V90.2444C85.7317 88.1111 85.1983 86.1556 84.1317 84.3778C83.1243 82.6 81.7318 81.2074 79.954 80.2C78.1763 79.1333 76.2208 78.6 74.0875 78.6C71.895 78.6 69.9099 79.1333 68.1322 80.2C66.3544 81.2074 64.9322 82.6 63.8656 84.3778C62.8582 86.1556 62.3545 88.1111 62.3545 90.2444V117H55.8658V90.2444C55.8658 88.1111 55.3325 86.1556 54.2659 84.3778C53.2585 82.6 51.8659 81.2074 50.0882 80.2C48.3105 79.1333 46.355 78.6 44.2217 78.6C42.0292 78.6 40.0441 79.1333 38.2663 80.2C36.4886 81.2667 35.0664 82.7481 33.9998 84.6444C32.9924 86.4815 32.4887 88.6444 32.4887 91.1333V117H26Z" fill="white"/>
<path d="M120.48 117C117.695 117 115.147 116.319 112.836 114.956C110.584 113.533 108.777 111.637 107.414 109.267C106.11 106.837 105.458 104.17 105.458 101.267V59.3111H111.947V101.267C111.947 103.044 112.332 104.674 113.102 106.156C113.932 107.637 115.028 108.822 116.391 109.711C117.754 110.541 119.265 110.956 120.924 110.956H127.235V117H120.48ZM99.2361 79.3111V74.3333H125.813V79.3111H99.2361Z" fill="white"/>
<path d="M166.445 117L144.223 91.5778H151.778L174 117H166.445ZM137.379 117V53H143.868V117H137.379ZM141.912 93.7111L163.245 74.3333H171.156L150.356 93.7111H141.912Z" fill="white"/>
</g>
<g id="Frame 97">
<circle id="Ellipse 1" cx="36" cy="133" r="6" fill="#EFE7D2"/>
<circle id="Ellipse 2" cx="68" cy="133" r="6" fill="#3F3F3F"/>
<circle id="Ellipse 3" cx="100" cy="133" r="6" fill="#BC6363"/>
<circle id="Ellipse 4" cx="132" cy="133" r="6" fill="#6D8F4F"/>
<circle id="Ellipse 5" cx="164" cy="133" r="6" fill="#5A79A7"/>
</g>
</g>
</g>
<defs>
<linearGradient id="paint0_linear_0_1" x1="100" y1="15" x2="100" y2="185" gradientUnits="userSpaceOnUse">
<stop stop-color="white"/>
<stop offset="0.807692"/>
</linearGradient>
</defs>
</svg>
